<svg xmlns="http://www.w3.org/2000/svg" viewBox="0 0 62 30">
  <defs/>
  <path fill="#00aee4" d="M54.4 14.3c0-.1-.1-.2-.1-.2h-.1l-4.3 3.3c-.1.1-.1.3 0 .4l4.3 3.3h.1c.1 0 .1-.1.1-.2v-6.6z"/>
  <path fill="#fff" d="M24.5 11.9c-3 0-5.5 2.5-5.5 5.6s2.5 5.6 5.5 5.6c1.6 0 3-.6 4.1-1.5l1.5 1.6c-1.5 1.4-3.4 2.3-5.6 2.3-4.4 0-8-3.6-8-8s3.6-8 8-8c2.2 0 4.1 1 5.4 2.6l-1.5 1.5c-1-1.1-2.4-1.7-3.9-1.7M43.3 15v10h-2.5V15c0-1.5-1.2-2.7-2.6-2.7-1.7 0-3.1 1-3.8 2.4V25h-2.5V2.7h2.5v8.7c1-.9 2.3-1.5 3.8-1.5 2.8 0 5.1 2.3 5.1 5.1M8.9 25.4c-4.4 0-8-3.6-8-8 0-4 2.5-8 7.1-8 3.4 0 6.9 2.4 6.9 8v.9H3.5C3.9 21 6.3 23 8.9 23c1.5 0 3-.6 4.1-1.5l1.5 1.6c-1.5 1.5-3.4 2.3-5.6 2.3m3.5-9.2c-.3-2.9-2.3-4.4-4.4-4.4-2.6 0-4.1 2.1-4.5 4.4h8.9zm48.5 1.3c0 4.4-3.6 8-8 8s-8-3.6-8-8 3.6-8 8-8c4.5 0 8 3.6 8 8m-2.5 0c0-3.1-2.5-5.6-5.5-5.6s-5.5 2.5-5.5 5.6 2.5 5.6 5.5 5.6c3.1-.1 5.5-2.6 5.5-5.6M48.2 4.4c.3-.3.6-.4 1-.4.7 0 1.3.5 1.3 1.2 0 .3-.2.6-.5.8.5.2.8.7.8 1.2 0 1-1 1.5-1.9 1.5-.2 0-.4 0-.6-.1l.1-.5c.1 0 .3.1.4.1.7 0 1.4-.4 1.4-1.1 0-.5-.4-.9-1.1-.9h-.3l-.1-.5c.6 0 1.2-.2 1.2-.7 0-.4-.3-.6-.7-.6-.3 0-.5.1-.7.3l-.3-.3zm4.6.2c.8 0 1.5.6 1.5 1.4s-.7 1.5-1.5 1.5c-.5 0-1.5-.3-1.5-1.8 0-1.9 1.1-2.8 2.2-3l.1.5c-.6.1-1.4.5-1.6 1.6.2-.1.4-.2.8-.2m0 2.4c.5 0 .9-.4.9-.9s-.4-.9-.9-.9c-.3 0-.9.1-.9.9-.1.5.4.9.9.9m5.3-1.2c0 1-.8 1.8-1.8 1.8s-1.8-.8-1.8-1.8.8-1.8 1.8-1.8 1.8.8 1.8 1.8m-.5 0c0-.7-.5-1.2-1.2-1.2s-1.2.6-1.2 1.2c0 .7.5 1.2 1.2 1.2.6 0 1.2-.6 1.2-1.2"/>
</svg>
