<?xml version="1.0" encoding="utf-8"?>
<!-- Generator: Adobe Illustrator 24.0.1, SVG Export Plug-In . SVG Version: 6.00 Build 0)  -->
<svg version="1.1" id="Layer_1" xmlns="http://www.w3.org/2000/svg" xmlns:xlink="http://www.w3.org/1999/xlink" x="0px" y="0px"
	 viewBox="0 0 62 30" style="enable-background:new 0 0 62 30;" xml:space="preserve">
<style type="text/css">
	.st0{fill:#00AEE4;}
	.st1{fill:#FFFFFF;}
</style>
<path class="st0" d="M54.4,14.3c0-0.1-0.1-0.2-0.1-0.2h-0.1l-4.3,3.3c-0.1,0.1-0.1,0.3,0,0.4l4.3,3.3h0.1c0.1,0,0.1-0.1,0.1-0.2
	C54.4,20.9,54.4,14.3,54.4,14.3z"/>
<path class="st1" d="M24.5,11.9c-3,0-5.5,2.5-5.5,5.6s2.5,5.6,5.5,5.6c1.6,0,3-0.6,4.1-1.5l1.5,1.6c-1.5,1.4-3.4,2.3-5.6,2.3
	c-4.4,0-8-3.6-8-8s3.6-8,8-8c2.2,0,4.1,1,5.4,2.6l-1.5,1.5C27.4,12.5,26,11.9,24.5,11.9"/>
<path class="st1" d="M43.3,15v10h-2.5V15c0-1.5-1.2-2.7-2.6-2.7c-1.7,0-3.1,1-3.8,2.4V25h-2.5V2.7h2.5v8.7c1-0.9,2.3-1.5,3.8-1.5
	C41,9.9,43.3,12.2,43.3,15"/>
<path class="st1" d="M8.9,25.4c-4.4,0-8-3.6-8-8c0-4,2.5-8,7.1-8c3.4,0,6.9,2.4,6.9,8v0.9H3.5C3.9,21,6.3,23,8.9,23
	c1.5,0,3-0.6,4.1-1.5l1.5,1.6C13,24.6,11.1,25.4,8.9,25.4 M12.4,16.2c-0.3-2.9-2.3-4.4-4.4-4.4c-2.6,0-4.1,2.1-4.5,4.4H12.4z"/>
<path class="st1" d="M60.9,17.5c0,4.4-3.6,8-8,8s-8-3.6-8-8s3.6-8,8-8C57.4,9.5,60.9,13.1,60.9,17.5 M58.4,17.5
	c0-3.1-2.5-5.6-5.5-5.6s-5.5,2.5-5.5,5.6s2.5,5.6,5.5,5.6C56,23,58.4,20.5,58.4,17.5"/>
<path class="st1" d="M48.2,4.4c0.3-0.3,0.6-0.4,1-0.4c0.7,0,1.3,0.5,1.3,1.2c0,0.3-0.2,0.6-0.5,0.8c0.5,0.2,0.8,0.7,0.8,1.2
	c0,1-1,1.5-1.9,1.5c-0.2,0-0.4,0-0.6-0.1l0.1-0.5c0.1,0,0.3,0.1,0.4,0.1c0.7,0,1.4-0.4,1.4-1.1c0-0.5-0.4-0.9-1.1-0.9h-0.3l-0.1-0.5
	c0.6,0,1.2-0.2,1.2-0.7c0-0.4-0.3-0.6-0.7-0.6c-0.3,0-0.5,0.1-0.7,0.3C48.5,4.7,48.2,4.4,48.2,4.4z"/>
<path class="st1" d="M52.8,4.6c0.8,0,1.5,0.6,1.5,1.4s-0.7,1.5-1.5,1.5c-0.5,0-1.5-0.3-1.5-1.8c0-1.9,1.1-2.8,2.2-3l0.1,0.5
	C53,3.3,52.2,3.7,52,4.8C52.2,4.7,52.4,4.6,52.8,4.6 M52.8,7c0.5,0,0.9-0.4,0.9-0.9s-0.4-0.9-0.9-0.9c-0.3,0-0.9,0.1-0.9,0.9
	C51.8,6.6,52.3,7,52.8,7"/>
<path class="st1" d="M58.1,5.8c0,1-0.8,1.8-1.8,1.8s-1.8-0.8-1.8-1.8S55.3,4,56.3,4S58.1,4.8,58.1,5.8 M57.6,5.8
	c0-0.7-0.5-1.2-1.2-1.2s-1.2,0.6-1.2,1.2c0,0.7,0.5,1.2,1.2,1.2C57,7,57.6,6.4,57.6,5.8"/>
</svg>
